# Blender 4.4.1
# www.blender.org
mtllib cabela2.mtl
o cube
v -0.140938 0.531719 0.281187
v -0.140938 0.531719 0.281187
v -0.140938 0.461406 0.281187
v -0.140938 0.461406 0.281187
v -0.281563 0.531719 0.281187
v -0.281563 0.531719 0.281187
v -0.281563 0.461406 0.281187
v -0.281563 0.461406 0.281187
vn -0.0000 -0.0000 -1.0000
vn -0.0000 -0.0000 1.0000
vt 0.750000 0.218750
vt 0.812500 0.218750
vt 0.812500 0.250000
vt 0.750000 0.250000
s 1
usemtl m_0a98a964-90cf-0e5d-207e-1088b01b9176
f 4/1/1 7/2/1 5/3/1 2/4/1
f 8/1/2 3/2/2 1/3/2 6/4/2
o cube.001
v 0.281188 0.531000 0.280937
v 0.281188 0.531000 -0.000313
v 0.281188 0.390375 0.280937
v 0.281188 0.390375 -0.000313
v 0.281188 0.531000 -0.000313
v 0.281188 0.531000 0.280937
v 0.281188 0.390375 -0.000313
v 0.281188 0.390375 0.280937
vn 1.0000 -0.0000 -0.0000
vn -1.0000 -0.0000 -0.0000
vt 0.000000 0.187500
vt 0.125000 0.187500
vt 0.125000 0.250000
vt 0.000000 0.250000
s 1
usemtl m_0a98a964-90cf-0e5d-207e-1088b01b9176
f 11/5/3 12/6/3 10/7/3 9/8/3
f 15/5/4 16/6/4 14/7/4 13/8/4
o cube.002
v 0.281563 0.531187 0.280937
v 0.281563 0.531187 0.140312
v 0.281563 0.531187 0.280937
v 0.281563 0.531187 0.140312
v 0.140938 0.531187 0.140312
v 0.140938 0.531187 0.280937
v 0.140938 0.531187 0.140312
v 0.140938 0.531187 0.280937
vn -0.0000 1.0000 -0.0000
vn -0.0000 -1.0000 -0.0000
vt 0.250000 0.437500
vt 0.312500 0.437500
vt 0.312500 0.500000
vt 0.250000 0.500000
s 1
usemtl m_0a98a964-90cf-0e5d-207e-1088b01b9176
f 22/9/5 17/10/5 18/11/5 21/12/5
f 23/9/6 20/10/6 19/11/6 24/12/6
o cube.003
v 0.282187 0.531219 0.281187
v 0.282187 0.531219 0.281187
v 0.282187 0.460906 0.281187
v 0.282187 0.460906 0.281187
v 0.141563 0.531219 0.281187
v 0.141563 0.531219 0.281187
v 0.141563 0.460906 0.281187
v 0.141563 0.460906 0.281187
vn -0.0000 -0.0000 -1.0000
vn -0.0000 -0.0000 1.0000
vt 0.937500 0.218750
vt 1.000000 0.218750
vt 1.000000 0.250000
vt 0.937500 0.250000
s 1
usemtl m_0a98a964-90cf-0e5d-207e-1088b01b9176
f 28/13/7 31/14/7 29/15/7 26/16/7
f 32/13/8 27/14/8 25/15/8 30/16/8
o cube.004
v 0.281719 0.461406 0.281187
v 0.281719 0.461406 0.281187
v 0.281719 0.391094 0.281187
v 0.281719 0.391094 0.281187
v 0.211406 0.461406 0.281187
v 0.211406 0.461406 0.281187
v 0.211406 0.391094 0.281187
v 0.211406 0.391094 0.281187
vn -0.0000 -0.0000 -1.0000
vn -0.0000 -0.0000 1.0000
vt 0.968750 0.187500
vt 1.000000 0.187500
vt 1.000000 0.218750
vt 0.968750 0.218750
s 1
usemtl m_0a98a964-90cf-0e5d-207e-1088b01b9176
f 36/17/9 39/18/9 37/19/9 34/20/9
f 40/17/10 35/18/10 33/19/10 38/20/10
o cube.005
v 0.281406 0.531187 0.140781
v 0.281406 0.531187 0.070469
v 0.281406 0.531187 0.140781
v 0.281406 0.531187 0.070469
v 0.211094 0.531187 0.070469
v 0.211094 0.531187 0.140781
v 0.211094 0.531187 0.070469
v 0.211094 0.531187 0.140781
vn -0.0000 1.0000 -0.0000
vn -0.0000 -1.0000 -0.0000
vt 0.250000 0.406250
vt 0.281250 0.406250
vt 0.281250 0.437500
vt 0.250000 0.437500
s 1
usemtl m_0a98a964-90cf-0e5d-207e-1088b01b9176
f 46/21/11 41/22/11 42/23/11 45/24/11
f 47/21/12 44/22/12 43/23/12 48/24/12
o cube.006
v 0.281188 0.390969 0.211719
v 0.281188 0.390969 0.141406
v 0.281188 0.320656 0.211719
v 0.281188 0.320656 0.141406
v 0.281188 0.390969 0.141406
v 0.281188 0.390969 0.211719
v 0.281188 0.320656 0.141406
v 0.281188 0.320656 0.211719
vn 1.0000 -0.0000 -0.0000
vn -1.0000 -0.0000 -0.0000
vt 0.031250 0.156250
vt 0.062500 0.156250
vt 0.062500 0.187500
vt 0.031250 0.187500
s 1
usemtl m_0a98a964-90cf-0e5d-207e-1088b01b9176
f 51/25/13 52/26/13 50/27/13 49/28/13
f 55/25/14 56/26/14 54/27/14 53/28/14
o cube.007
v 0.281188 0.320469 0.070469
v 0.281188 0.320469 0.000156
v 0.281188 0.250156 0.070469
v 0.281188 0.250156 0.000156
v 0.281188 0.320469 0.000156
v 0.281188 0.320469 0.070469
v 0.281188 0.250156 0.000156
v 0.281188 0.250156 0.070469
vn 1.0000 -0.0000 -0.0000
vn -1.0000 -0.0000 -0.0000
vt 0.093750 0.125000
vt 0.125000 0.125000
vt 0.125000 0.156250
vt 0.093750 0.156250
s 1
usemtl m_0a98a964-90cf-0e5d-207e-1088b01b9176
f 59/29/15 60/30/15 58/31/15 57/32/15
f 63/29/16 64/30/16 62/31/16 61/32/16
o cube.008
v 0.281188 0.461469 -0.000156
v 0.281188 0.461469 -0.070469
v 0.281188 0.391156 -0.000156
v 0.281188 0.391156 -0.070469
v 0.281188 0.461469 -0.070469
v 0.281188 0.461469 -0.000156
v 0.281188 0.391156 -0.070469
v 0.281188 0.391156 -0.000156
vn 1.0000 -0.0000 -0.0000
vn -1.0000 -0.0000 -0.0000
vt 0.125000 0.187500
vt 0.156250 0.187500
vt 0.156250 0.218750
vt 0.125000 0.218750
s 1
usemtl m_0a98a964-90cf-0e5d-207e-1088b01b9176
f 67/33/17 68/34/17 66/35/17 65/36/17
f 71/33/18 72/34/18 70/35/18 69/36/18
o cube.009
v 0.281188 0.390781 -0.070781
v 0.281188 0.390781 -0.141094
v 0.281188 0.320469 -0.070781
v 0.281188 0.320469 -0.141094
v 0.281188 0.390781 -0.141094
v 0.281188 0.390781 -0.070781
v 0.281188 0.320469 -0.141094
v 0.281188 0.320469 -0.070781
vn 1.0000 -0.0000 -0.0000
vn -1.0000 -0.0000 -0.0000
vt 0.156250 0.156250
vt 0.187500 0.156250
vt 0.187500 0.187500
vt 0.156250 0.187500
s 1
usemtl m_0a98a964-90cf-0e5d-207e-1088b01b9176
f 75/37/19 76/38/19 74/39/19 73/40/19
f 79/37/20 80/38/20 78/39/20 77/40/20
o cube.010
v -0.211094 0.461844 0.281250
v -0.211094 0.461844 0.281250
v -0.211094 0.391531 0.281250
v -0.211094 0.391531 0.281250
v -0.281406 0.461844 0.281250
v -0.281406 0.461844 0.281250
v -0.281406 0.391531 0.281250
v -0.281406 0.391531 0.281250
vn -0.0000 -0.0000 -1.0000
vn -0.0000 -0.0000 1.0000
vt 0.750000 0.187500
vt 0.781250 0.187500
vt 0.781250 0.218750
vt 0.750000 0.218750
s 1
usemtl m_0a98a964-90cf-0e5d-207e-1088b01b9176
f 84/41/21 87/42/21 85/43/21 82/44/21
f 88/41/22 83/42/22 81/43/22 86/44/22
o cube.011
v 0.250000 0.500000 0.250000
v 0.250000 0.500000 -0.250000
v 0.250000 0.000000 0.250000
v 0.250000 -0.000000 -0.250000
v -0.250000 0.500000 -0.250000
v -0.250000 0.500000 0.250000
v -0.250000 -0.000000 -0.250000
v -0.250000 0.000000 0.250000
vn -0.0000 -0.0000 -1.0000
vn 1.0000 -0.0000 -0.0000
vn -0.0000 -0.0000 1.0000
vn -1.0000 -0.0000 -0.0000
vn -0.0000 1.0000 -0.0000
vn -0.0000 -1.0000 -0.0000
vt 0.250000 0.500000
vt 0.500000 0.500000
vt 0.500000 0.750000
vt 0.250000 0.750000
vt 0.000000 0.500000
vt 0.000000 0.750000
vt 0.750000 0.500000
vt 1.000000 0.500000
vt 1.000000 0.750000
vt 0.750000 0.750000
vt 0.500000 1.000000
vt 0.250000 1.000000
vt 0.750000 1.000000
s 1
usemtl m_0a98a964-90cf-0e5d-207e-1088b01b9176
f 92/45/23 95/46/23 93/47/23 90/48/23
f 91/49/24 92/45/24 90/48/24 89/50/24
f 96/51/25 91/52/25 89/53/25 94/54/25
f 95/46/26 96/51/26 94/54/26 93/47/26
f 94/55/27 89/56/27 90/48/27 93/47/27
f 95/54/28 92/47/28 91/55/28 96/57/28
o cube.012
v -0.211094 0.531187 0.140844
v -0.211094 0.531187 0.070531
v -0.211094 0.531187 0.140844
v -0.211094 0.531187 0.070531
v -0.281406 0.531187 0.070531
v -0.281406 0.531187 0.140844
v -0.281406 0.531187 0.070531
v -0.281406 0.531187 0.140844
vn -0.0000 1.0000 -0.0000
vn -0.0000 -1.0000 -0.0000
vt 0.468750 0.406250
vt 0.500000 0.406250
vt 0.500000 0.437500
vt 0.468750 0.437500
s 1
usemtl m_0a98a964-90cf-0e5d-207e-1088b01b9176
f 102/58/29 97/59/29 98/60/29 101/61/29
f 103/58/30 100/59/30 99/60/30 104/61/30
o cube.013
v -0.140625 0.531187 0.281625
v -0.140625 0.531187 0.141000
v -0.140625 0.531187 0.281625
v -0.140625 0.531187 0.141000
v -0.281250 0.531187 0.141000
v -0.281250 0.531187 0.281625
v -0.281250 0.531187 0.141000
v -0.281250 0.531187 0.281625
vn -0.0000 1.0000 -0.0000
vn -0.0000 -1.0000 -0.0000
vt 0.437500 0.437500
vt 0.500000 0.437500
vt 0.500000 0.500000
vt 0.437500 0.500000
s 1
usemtl m_0a98a964-90cf-0e5d-207e-1088b01b9176
f 110/62/31 105/63/31 106/64/31 109/65/31
f 111/62/32 108/63/32 107/64/32 112/65/32
o cube.014
v -0.281250 0.320469 0.070531
v -0.281250 0.320469 0.000219
v -0.281250 0.250156 0.070531
v -0.281250 0.250156 0.000219
v -0.281250 0.320469 0.000219
v -0.281250 0.320469 0.070531
v -0.281250 0.250156 0.000219
v -0.281250 0.250156 0.070531
vn 1.0000 -0.0000 -0.0000
vn -1.0000 -0.0000 -0.0000
vt 0.625000 0.125000
vt 0.656250 0.125000
vt 0.656250 0.156250
vt 0.625000 0.156250
s 1
usemtl m_0a98a964-90cf-0e5d-207e-1088b01b9176
f 115/66/33 116/67/33 114/68/33 113/69/33
f 119/66/34 120/67/34 118/68/34 117/69/34
o cube.015
v -0.281250 0.461406 0.000031
v -0.281250 0.461406 -0.070281
v -0.281250 0.391094 0.000031
v -0.281250 0.391094 -0.070281
v -0.281250 0.461406 -0.070281
v -0.281250 0.461406 0.000031
v -0.281250 0.391094 -0.070281
v -0.281250 0.391094 0.000031
vn 1.0000 -0.0000 -0.0000
vn -1.0000 -0.0000 -0.0000
vt 0.593750 0.187500
vt 0.625000 0.187500
vt 0.625000 0.218750
vt 0.593750 0.218750
s 1
usemtl m_0a98a964-90cf-0e5d-207e-1088b01b9176
f 123/70/35 124/71/35 122/72/35 121/73/35
f 127/70/36 128/71/36 126/72/36 125/73/36
o cube.016
v -0.281250 0.531438 0.281250
v -0.281250 0.531438 -0.000000
v -0.281250 0.390813 0.281250
v -0.281250 0.390812 -0.000000
v -0.281250 0.531438 -0.000000
v -0.281250 0.531438 0.281250
v -0.281250 0.390812 -0.000000
v -0.281250 0.390813 0.281250
vn 1.0000 -0.0000 -0.0000
vn -1.0000 -0.0000 -0.0000
vt 0.625000 0.187500
vt 0.750000 0.187500
vt 0.750000 0.250000
vt 0.625000 0.250000
s 1
usemtl m_0a98a964-90cf-0e5d-207e-1088b01b9176
f 131/74/37 132/75/37 130/76/37 129/77/37
f 135/74/38 136/75/38 134/76/38 133/77/38
o cube.017
v 0.070312 0.531187 0.000156
v 0.070312 0.531187 -0.070156
v 0.070312 0.531187 0.000156
v 0.070312 0.531187 -0.070156
v -0.070312 0.531187 -0.070156
v -0.070312 0.531187 0.000156
v -0.070312 0.531187 -0.070156
v -0.070312 0.531187 0.000156
vn -0.0000 1.0000 -0.0000
vn -0.0000 -1.0000 -0.0000
vt 0.343750 0.343750
vt 0.406250 0.343750
vt 0.406250 0.375000
vt 0.343750 0.375000
s 1
usemtl m_0a98a964-90cf-0e5d-207e-1088b01b9176
f 142/78/39 137/79/39 138/80/39 141/81/39
f 143/78/40 140/79/40 139/80/40 144/81/40
o cube.018
v 0.140625 0.531187 -0.070156
v 0.140625 0.531187 -0.281094
v 0.140625 0.531187 -0.070156
v 0.140625 0.531187 -0.281094
v -0.140625 0.531187 -0.281094
v -0.140625 0.531187 -0.070156
v -0.140625 0.531187 -0.281094
v -0.140625 0.531187 -0.070156
vn -0.0000 1.0000 -0.0000
vn -0.0000 -1.0000 -0.0000
vt 0.312500 0.250000
vt 0.437500 0.250000
vt 0.437500 0.343750
vt 0.312500 0.343750
s 1
usemtl m_0a98a964-90cf-0e5d-207e-1088b01b9176
f 150/82/41 145/83/41 146/84/41 149/85/41
f 151/82/42 148/83/42 147/84/42 152/85/42
o cube.019
v 0.211094 0.249219 -0.281250
v 0.211094 0.249219 -0.281250
v 0.211094 0.038281 -0.281250
v 0.211094 0.038281 -0.281250
v 0.140781 0.249219 -0.281250
v 0.140781 0.249219 -0.281250
v 0.140781 0.038281 -0.281250
v 0.140781 0.038281 -0.281250
vn -0.0000 -0.0000 -1.0000
vn -0.0000 -0.0000 1.0000
vt 0.281250 0.031250
vt 0.312500 0.031250
vt 0.312500 0.125000
vt 0.281250 0.125000
s 1
usemtl m_0a98a964-90cf-0e5d-207e-1088b01b9176
f 156/86/43 159/87/43 157/88/43 154/89/43
f 160/86/44 155/87/44 153/88/44 158/89/44
o cube.020
v -0.140781 0.249219 -0.281250
v -0.140781 0.249219 -0.281250
v -0.140781 0.038281 -0.281250
v -0.140781 0.038281 -0.281250
v -0.211094 0.249219 -0.281250
v -0.211094 0.249219 -0.281250
v -0.211094 0.038281 -0.281250
v -0.211094 0.038281 -0.281250
vn -0.0000 -0.0000 -1.0000
vn -0.0000 -0.0000 1.0000
vt 0.437500 0.031250
vt 0.468750 0.031250
vt 0.468750 0.125000
vt 0.437500 0.125000
s 1
usemtl m_0a98a964-90cf-0e5d-207e-1088b01b9176
f 164/90/45 167/91/45 165/92/45 162/93/45
f 168/90/46 163/91/46 161/92/46 166/93/46
o cube.021
v 0.140625 0.531250 -0.281250
v 0.140625 0.531250 -0.281250
v 0.140625 -0.031250 -0.281250
v 0.140625 -0.031250 -0.281250
v -0.140625 0.531250 -0.281250
v -0.140625 0.531250 -0.281250
v -0.140625 -0.031250 -0.281250
v -0.140625 -0.031250 -0.281250
vn -0.0000 -0.0000 -1.0000
vn -0.0000 -0.0000 1.0000
vt 0.312500 0.000000
vt 0.437500 0.000000
vt 0.437500 0.250000
vt 0.312500 0.250000
s 1
usemtl m_0a98a964-90cf-0e5d-207e-1088b01b9176
f 172/94/47 175/95/47 173/96/47 170/97/47
f 176/94/48 171/95/48 169/96/48 174/97/48
