# Blender 4.4.1
# www.blender.org
mtllib axe.mtl
o Axe_Low
v -0.042926 -0.084620 -0.055473
v -0.042785 0.018196 -0.055473
v 0.116789 -0.005744 -0.025170
v 0.104029 -0.033063 -0.025166
v 0.056281 -0.076461 -0.050145
v 0.056304 0.016292 -0.050091
v -0.078262 0.018520 -0.018435
v -0.090442 -0.089708 -0.027297
v -0.130488 0.059998 -0.012175
v -0.161349 -0.125456 -0.013184
v -0.161903 0.093921 -0.008823
v -0.150653 -0.210279 -0.008733
v -0.191401 0.147855 -0.003980
v -0.181879 -0.259838 -0.007948
v -0.042760 -0.022931 -0.055473
v -0.081584 -0.027540 -0.032668
v -0.163505 -0.016749 -0.016509
v -0.167359 -0.071987 -0.016448
v -0.199782 0.054522 -0.018546
v -0.215528 -0.015511 -0.020855
v -0.214108 -0.084270 -0.020574
v -0.202145 -0.152152 -0.019028
v -0.247846 -0.189732 -0.006100
v -0.282101 -0.103145 -0.006100
v -0.282101 -0.018250 -0.006100
v -0.250842 0.084828 -0.005959
v -0.150505 0.030964 -0.016509
v -0.030382 -0.099213 0.000000
v -0.042926 -0.084620 0.055472
v -0.042785 0.018196 0.055472
v 0.187259 -0.035561 0.000000
v 0.121606 0.002131 -0.000000
v 0.108859 -0.041799 0.000000
v 0.116789 -0.005744 0.025169
v 0.104029 -0.033063 0.025165
v 0.084361 -0.080338 0.000000
v 0.084778 0.020570 -0.000000
v 0.056281 -0.076461 0.050145
v 0.056304 0.016292 0.050090
v -0.069221 0.023243 -0.000000
v -0.092750 -0.101618 0.000000
v -0.078262 0.018520 0.018434
v -0.090442 -0.089708 0.027297
v -0.124728 0.066607 -0.000000
v -0.150106 -0.141460 -0.008420
v -0.130488 0.059998 0.012175
v -0.159791 -0.138166 0.011304
v -0.154151 0.099091 -0.000000
v -0.143261 -0.214053 0.000000
v -0.161903 0.093921 0.008823
v -0.150653 -0.210279 0.008733
v -0.189853 0.161125 -0.000000
v -0.180466 -0.275661 0.000000
v -0.191401 0.147855 0.003979
v -0.181879 -0.259838 0.007948
v -0.042760 -0.022931 0.055472
v -0.081584 -0.027540 0.032668
v -0.163505 -0.016749 0.016509
v -0.167359 -0.071987 0.016448
v -0.255502 0.083443 -0.000000
v -0.291291 -0.018250 0.000000
v -0.290923 -0.107080 0.000000
v -0.255375 -0.195313 0.000000
v -0.199782 0.054522 0.018546
v -0.215528 -0.015511 0.020855
v -0.214108 -0.084270 0.020573
v -0.202145 -0.152152 0.019028
v -0.247846 -0.189732 0.006100
v -0.282101 -0.103145 0.006100
v -0.282101 -0.018250 0.006100
v -0.250055 0.087424 0.005955
v -0.150505 0.030964 0.016509
v -0.096601 -0.864296 0.007002
v -0.042577 0.061427 -0.002535
v -0.051577 -0.858297 -0.059752
v -0.020404 0.062222 -0.039204
v 0.002714 -0.867718 -0.054636
v 0.020675 0.065250 -0.041287
v 0.040448 -0.873326 0.010248
v 0.043839 0.066376 0.000775
v 0.004362 -0.870145 0.069499
v 0.019123 0.062949 0.041853
v -0.064193 -0.859128 0.067876
v -0.022917 0.058870 0.034883
v -0.073523 -0.501860 0.005655
v -0.044652 -0.276982 0.000353
v -0.037971 -0.095761 -0.002411
v -0.016454 -0.093920 -0.038536
v -0.022181 -0.276652 -0.038443
v -0.052431 -0.501419 -0.045146
v 0.025741 -0.091447 -0.038145
v 0.022662 -0.276193 -0.038356
v -0.007689 -0.506296 -0.046609
v 0.046396 -0.090811 -0.001553
v 0.045018 -0.276064 0.000576
v 0.026652 -0.501023 -0.003532
v 0.024800 -0.092646 0.034593
v 0.022493 -0.276394 0.039384
v -0.003099 -0.500902 0.056371
v -0.017372 -0.095122 0.034126
v -0.022333 -0.276854 0.039248
v -0.052373 -0.501823 0.056440
v -0.029091 -0.715749 -0.056950
v -0.014491 -0.849168 -0.039746
v -0.045687 0.029743 -0.001642
v -0.022645 0.032739 -0.040030
v 0.022106 0.036727 -0.039210
v 0.043807 0.037717 0.000034
v 0.020730 0.034720 0.038432
v -0.024012 0.030733 0.037576
v 0.029501 0.073902 -0.016874
v 0.037891 0.037221 -0.016736
v -0.012188 -0.864968 -0.005575
v -0.240488 0.094662 0.005599
v -0.240979 0.094130 -0.005616
v -0.243887 0.099428 -0.000000
v -0.226831 0.076074 0.009185
v -0.227703 0.074665 -0.011741
vn 0.4675 0.8142 -0.3442
vn -0.0128 -0.9528 -0.3035
vn 0.0199 0.9959 -0.0884
vn 0.0746 -0.9375 -0.3398
vn 0.2832 -0.1324 -0.9499
vn 0.3281 -0.1534 -0.9321
vn 0.7419 -0.5284 -0.4127
vn 0.4331 0.8399 -0.3272
vn 0.1277 -0.9675 -0.2183
vn 0.3555 -0.6536 -0.6681
vn -0.1660 0.9718 -0.1675
vn 0.5446 0.5317 -0.6487
vn 0.5155 0.6919 -0.5054
vn 0.5792 -0.3617 -0.7306
vn 0.1618 -0.0314 -0.9863
vn 0.5859 -0.0010 -0.8104
vn -0.0505 -0.1116 -0.9925
vn 0.4957 0.3126 -0.8103
vn -0.0396 0.1575 -0.9867
vn -0.2101 0.0708 -0.9751
vn -0.2117 -0.0037 -0.9773
vn -0.2008 -0.0699 -0.9771
vn -0.4395 -0.4017 -0.8034
vn -0.5072 -0.2025 -0.8377
vn -0.5606 -0.0012 -0.8281
vn -0.6535 0.2145 -0.7259
vn 0.0860 -0.0044 -0.9963
vn 0.1224 -0.0212 -0.9922
vn -0.0008 0.1482 -0.9890
vn -0.1919 0.0123 -0.9813
vn -0.1551 -0.0698 -0.9854
vn -0.5084 -0.0003 -0.8611
vn 0.4633 0.0004 -0.8862
vn 0.0540 0.0002 -0.9985
vn 0.0539 0.0002 -0.9985
vn 0.0536 0.0006 -0.9986
vn 0.0543 -0.0001 -0.9985
vn 0.0542 -0.0000 -0.9985
vn 0.0801 0.1351 -0.9876
vn 0.0639 0.0040 -0.9980
vn -0.6255 0.1487 -0.7659
vn -0.0904 0.1648 -0.9822
vn 0.4675 0.8142 0.3442
vn -0.0128 -0.9527 0.3035
vn 0.0199 0.9959 0.0884
vn 0.0746 -0.9375 0.3398
vn 0.2832 -0.1324 0.9499
vn 0.3281 -0.1534 0.9321
vn 0.7419 -0.5284 0.4127
vn 0.4331 0.8399 0.3272
vn 0.1277 -0.9675 0.2183
vn 0.4938 -0.8017 0.3367
vn -0.1660 0.9718 0.1675
vn 0.5446 0.5317 0.6487
vn 0.5155 0.6919 0.5054
vn 0.5792 -0.3617 0.7306
vn 0.1832 -0.0118 0.9830
vn 0.8641 0.1152 0.4899
vn -0.0505 -0.1116 0.9925
vn 0.4957 0.3125 0.8103
vn -0.0390 0.1575 0.9867
vn -0.2100 0.0707 0.9751
vn -0.2117 -0.0037 0.9773
vn -0.2008 -0.0699 0.9771
vn -0.4395 -0.4017 0.8034
vn -0.5072 -0.2025 0.8377
vn -0.5606 -0.0012 0.8281
vn -0.6550 0.2148 0.7244
vn 0.0859 -0.0044 0.9963
vn 0.1402 -0.0290 0.9897
vn -0.0008 0.1482 0.9890
vn -0.1919 0.0123 0.9813
vn -0.1571 -0.0791 0.9844
vn -0.5084 -0.0003 0.8611
vn 0.4633 0.0004 0.8862
vn 0.0540 0.0002 0.9985
vn 0.0536 0.0006 0.9986
vn 0.0542 -0.0000 0.9985
vn 0.0543 -0.0001 0.9985
vn 0.0801 0.1351 0.9876
vn 0.0639 0.0040 0.9980
vn -0.6255 0.1487 0.7659
vn -0.0904 0.1648 0.9822
vn -0.8559 0.0743 -0.5118
vn -0.0130 -0.0214 -0.9997
vn 0.8028 0.1815 -0.5679
vn 0.8574 -0.0139 0.5145
vn -0.1567 0.9747 -0.1596
vn -0.0885 -0.0137 0.9960
vn -0.8758 0.0900 0.4742
vn -0.0507 -0.9986 -0.0115
vn -0.9014 0.0513 0.4300
vn -0.8913 0.1383 0.4318
vn -0.8687 0.0386 0.4939
vn -0.0103 0.0338 0.9994
vn -0.0018 0.0760 0.9971
vn -0.0078 0.0273 0.9996
vn 0.8750 0.0426 0.4823
vn 0.8814 -0.0728 0.4666
vn 0.8618 0.0009 0.5073
vn 0.8616 0.0008 0.5076
vn 0.8573 0.0111 0.5147
vn 0.8315 0.0231 -0.5550
vn 0.8226 -0.0727 -0.5639
vn 0.8689 -0.0130 -0.4947
vn 0.4852 -0.0594 -0.8724
vn -0.0136 0.0347 -0.9993
vn 0.0055 0.0002 -1.0000
vn 0.0142 -0.0095 -0.9999
vn 0.0054 -0.0002 -1.0000
vn -0.8719 0.0359 -0.4884
vn -0.8934 0.1188 -0.4333
vn -0.8624 0.0254 -0.5056
vn 0.2030 0.0276 -0.9788
vn -0.1316 0.0402 -0.9905
vn -0.0270 0.0520 -0.9983
vn -0.1169 -0.9930 -0.0179
vn -0.1062 -0.9933 -0.0451
vn -0.7951 -0.5692 -0.2096
vn -0.7411 -0.1650 -0.6508
vn -0.8712 -0.0579 0.4874
vn -0.0130 -0.0293 0.9995
vn 0.8574 0.0114 0.5146
vn 0.8510 0.0070 -0.5251
vn 0.0146 -0.0095 -0.9998
vn -0.8558 -0.0487 -0.5150
vn -0.1415 0.9798 0.1413
vn 0.7793 0.0153 -0.6265
vn 0.9377 0.0218 -0.3467
vn 0.9426 0.0231 -0.3332
vn 0.9202 0.2092 -0.3308
vn 0.4183 -0.8134 -0.4043
vn -0.2319 -0.9726 -0.0159
vn -0.0185 0.9835 0.1801
vn -0.0316 0.2804 -0.9594
vn 0.1552 0.5510 0.8200
vn -0.4231 0.3914 -0.8172
vn -0.4226 0.3909 0.8177
vn -0.4171 -0.1330 0.8991
vn -0.2511 -0.0211 -0.9677
vn -0.8457 -0.5301 0.0622
vn -0.8121 -0.5794 0.0694
vn 0.4114 0.9020 -0.1308
vn -0.4630 0.8719 -0.1594
vt 0.567215 0.421662
vt 0.577259 0.383828
vt 0.684677 0.411795
vt 0.406457 0.563093
vt 0.442700 0.630502
vt 0.352920 0.653491
vt 0.341283 0.607410
vt 0.480480 0.431816
vt 0.383680 0.453170
vt 0.325627 0.394490
vt 0.518553 0.370307
vt 0.600552 0.490463
vt 0.568143 0.466211
vt 0.572204 0.551000
vt 0.506184 0.527214
vt 0.264740 0.723856
vt 0.241378 0.714036
vt 0.318675 0.428237
vt 0.216706 0.374581
vt 0.210546 0.395382
vt 0.149688 0.364799
vt 0.158929 0.348909
vt 0.247555 0.827221
vt 0.264023 0.835167
vt 0.206379 0.922013
vt 0.203616 0.895453
vt 0.171489 0.739605
vt 0.104261 0.803059
vt 0.080227 0.311786
vt 0.075271 0.293987
vt 0.120224 0.436186
vt 0.041250 0.393907
vt 0.122274 0.537933
vt 0.021607 0.557969
vt 0.030451 0.419108
vt 0.141866 0.638206
vt 0.041386 0.680025
vt 0.091565 0.813840
vt 0.026672 0.688238
vt 0.006506 0.560449
vt 0.025797 0.419652
vt 0.198229 0.522482
vt 0.210579 0.608348
vt 0.197682 0.446353
vt 0.328132 0.508408
vt 0.389099 0.495946
vt 0.381155 0.744469
vt 0.277039 0.795050
vt 0.353690 0.717568
vt 0.588069 0.783540
vt 0.665490 0.788816
vt 0.678142 0.833813
vt 0.590813 0.858588
vt 0.459528 0.709524
vt 0.396457 0.676691
vt 0.571634 0.599868
vt 0.552242 0.678891
vt 0.387510 0.819274
vt 0.402717 0.782552
vt 0.485627 0.803053
vt 0.441764 0.856171
vt 0.802710 0.831555
vt 0.787339 0.851234
vt 0.594745 0.624799
vt 0.652684 0.526731
vt 0.686144 0.473824
vt 0.703045 0.481522
vt 0.668971 0.540812
vt 0.851026 0.932060
vt 0.921012 0.970192
vt 0.931120 0.994378
vt 0.840598 0.946668
vt 0.875202 0.820506
vt 0.963228 0.843803
vt 0.720323 0.378205
vt 0.726982 0.396827
vt 0.812413 0.451361
vt 0.771118 0.525130
vt 0.830432 0.458636
vt 0.918700 0.591969
vt 0.822035 0.619143
vt 0.959887 0.707969
vt 0.852722 0.718142
vt 0.979246 0.847151
vt 0.976558 0.708168
vt 0.933832 0.586645
vt 0.843509 0.459371
vt 0.746793 0.643880
vt 0.778459 0.725086
vt 0.707670 0.577140
vt 0.627461 0.697760
vt 0.569210 0.717917
vt 0.059863 0.097278
vt 0.028116 0.094862
vt 0.028962 0.051084
vt 0.058480 0.053416
vt 0.026785 0.009104
vt 0.055961 0.008380
vt 0.045218 0.279524
vt 0.007311 0.254609
vt 0.045839 0.251231
vt 0.045437 0.232748
vt 0.015726 0.231472
vt 0.019899 0.181914
vt 0.049278 0.185957
vt 0.603688 0.924200
vt 0.644986 0.854170
vt 0.687657 0.988978
vt 0.636148 0.995383
vt 0.028149 0.138466
vt 0.056769 0.140939
vt 0.380428 0.829234
vt 0.431295 0.929252
vt 0.235896 0.909282
vt 0.284379 0.825819
vt 0.984660 0.176167
vt 0.621363 0.163844
vt 0.622641 0.108559
vt 0.991328 0.105294
vt 0.383672 0.155881
vt 0.385444 0.107478
vt 0.186952 0.147572
vt 0.188638 0.102344
vt 0.991322 0.246469
vt 0.614665 0.213592
vt 0.377758 0.202969
vt 0.182962 0.192948
vt 0.987382 0.316206
vt 0.605365 0.282354
vt 0.371628 0.249212
vt 0.179265 0.237109
vt 0.971558 0.390247
vt 0.604764 0.339786
vt 0.368265 0.295316
vt 0.177797 0.281042
vt 0.948457 0.455809
vt 0.812750 0.397341
vt 0.950530 0.411718
vt 0.619159 0.053363
vt 0.383417 0.059447
vt 0.378919 0.012761
vt 0.618659 0.007694
vt 0.188155 0.057392
vt 0.186891 0.013151
vt 0.981092 0.022723
vt 0.833751 0.011499
vt 0.386362 0.996442
vt 0.280961 0.995466
vt 0.339692 0.941574
vt 0.390971 0.961959
vt 0.725265 0.851410
vt 0.015762 0.281526
vt 0.732643 0.995358
vt 0.775745 0.915017
vt 0.069542 0.420501
vt 0.801258 0.482955
vt 0.036940 0.390724
vt 0.816916 0.440830
vt 0.034858 0.395117
vt 0.035982 0.406478
vt 0.025891 0.414317
s 1
usemtl Material.001
f 3/1/1 32/2/1 31/3/1
f 1/4/2 28/5/2 41/6/2 8/7/2
f 6/8/3 2/9/3 40/10/3 37/11/3
f 33/12/4 4/13/4 31/3/4
f 4/13/5 3/1/5 31/3/5
f 6/8/6 3/1/6 4/13/6
f 4/13/7 33/12/7 36/14/7 5/15/7
f 32/2/8 3/1/8 6/8/8 37/11/8
f 1/4/9 5/15/9 36/14/9 28/5/9
f 8/7/10 41/6/10 45/16/10 10/17/10
f 40/10/11 2/9/11 7/18/11
f 44/19/12 9/20/12 11/21/12 48/22/12
f 40/10/13 7/18/13 9/20/13 44/19/13
f 12/23/14 49/24/14 53/25/14 14/26/14
f 10/17/15 12/23/15 22/27/15
f 10/17/16 45/16/16 49/24/16 12/23/16
f 22/27/17 12/23/17 14/26/17 23/28/17
f 48/22/18 11/21/18 13/29/18 52/30/18
f 11/21/19 19/31/19 115/32/19 13/29/19
f 19/31/20 20/33/20 25/34/20 26/35/20
f 20/33/21 21/36/21 24/37/21 25/34/21
f 21/36/22 22/27/22 23/28/22 24/37/22
f 53/25/23 63/38/23 23/28/23 14/26/23
f 63/38/24 62/39/24 24/37/24 23/28/24
f 62/39/25 61/40/25 25/34/25 24/37/25
f 61/40/26 60/41/26 26/35/26 25/34/26
f 17/42/27 18/43/27 21/36/27 20/33/27
f 18/43/28 10/17/28 22/27/28 21/36/28
f 7/18/29 27/44/29 9/20/29
f 16/45/30 18/43/30 17/42/30
f 16/45/31 8/7/31 10/17/31 18/43/31
f 15/46/32 1/4/32 8/7/32 16/45/32
f 5/15/33 6/8/33 4/13/33
f 1/4/34 6/8/35 5/15/36
f 1/4/34 15/46/37 6/8/35
f 15/46/37 2/9/38 6/8/35
f 9/20/39 27/44/39 19/31/39 11/21/39
f 19/31/40 27/44/40 17/42/40 20/33/40
f 7/18/41 2/9/41 15/46/41 16/45/41
f 27/44/42 7/18/42 16/45/42 17/42/42
f 34/47/43 31/48/43 32/49/43
f 29/50/44 43/51/44 41/52/44 28/53/44
f 39/54/45 37/55/45 40/56/45 30/57/45
f 33/58/46 31/48/46 35/59/46
f 35/59/47 31/48/47 34/47/47
f 39/54/48 35/59/48 34/47/48
f 35/59/49 38/60/49 36/61/49 33/58/49
f 32/49/50 37/55/50 39/54/50 34/47/50
f 29/50/51 28/53/51 36/61/51 38/60/51
f 43/51/52 47/62/52 45/63/52 41/52/52
f 40/56/53 42/64/53 30/57/53
f 44/65/54 48/66/54 50/67/54 46/68/54
f 40/56/55 44/65/55 46/68/55 42/64/55
f 51/69/56 55/70/56 53/71/56 49/72/56
f 47/62/57 67/73/57 51/69/57
f 47/62/58 51/69/58 49/72/58 45/63/58
f 67/73/59 68/74/59 55/70/59 51/69/59
f 48/66/60 52/75/60 54/76/60 50/67/60
f 50/67/61 54/76/61 114/77/61 64/78/61
f 64/78/62 71/79/62 70/80/62 65/81/62
f 65/81/63 70/80/63 69/82/63 66/83/63
f 66/83/64 69/82/64 68/74/64 67/73/64
f 53/71/65 55/70/65 68/74/65 63/84/65
f 63/84/66 68/74/66 69/82/66 62/85/66
f 62/85/67 69/82/67 70/80/67 61/86/67
f 61/86/68 70/80/68 71/79/68 60/87/68
f 58/88/69 65/81/69 66/83/69 59/89/69
f 59/89/70 66/83/70 67/73/70 47/62/70
f 42/64/71 46/68/71 72/90/71
f 57/91/72 58/88/72 59/89/72
f 57/91/73 59/89/73 47/62/73 43/51/73
f 56/92/74 57/91/74 43/51/74 29/50/74
f 38/60/75 35/59/75 39/54/75
f 29/50/76 38/60/77 39/54/78
f 29/50/76 39/54/78 56/92/79
f 56/92/79 39/54/78 30/57/78
f 46/68/80 50/67/80 64/78/80 72/90/80
f 64/78/81 65/81/81 58/88/81 72/90/81
f 42/64/82 57/91/82 56/92/82 30/57/82
f 72/90/83 58/88/83 57/91/83 42/64/83
f 105/93/84 74/94/84 76/95/84 106/96/84
f 106/96/85 76/95/85 78/97/85 107/98/85
f 107/99/86 111/100/86 112/101/86
f 108/102/87 80/103/87 82/104/87 109/105/87
f 76/106/88 74/107/88 111/108/88 78/109/88
f 109/105/89 82/104/89 84/110/89 110/111/89
f 110/111/90 84/110/90 74/94/90 105/93/90
f 73/112/91 75/113/91 81/114/91 83/115/91
f 83/116/92 102/117/92 85/118/92 73/119/92
f 102/117/93 101/120/93 86/121/93 85/118/93
f 101/120/94 100/122/94 87/123/94 86/121/94
f 81/124/95 99/125/95 102/117/95 83/116/95
f 99/125/96 98/126/96 101/120/96 102/117/96
f 98/126/97 97/127/97 100/122/97 101/120/97
f 79/128/98 96/129/98 99/125/98 81/124/98
f 96/129/99 95/130/99 98/126/99 99/125/99
f 95/130/100 94/131/101 97/127/102 98/126/100
f 77/132/103 93/133/103 96/129/103 79/128/103
f 93/133/104 92/134/104 95/130/104 96/129/104
f 92/134/105 91/135/105 94/131/105 95/130/105
f 75/136/106 103/137/106 104/138/106
f 90/139/107 89/140/107 92/141/107 93/142/107
f 89/140/108 88/143/109 91/144/110 92/141/108
f 73/119/111 85/118/111 90/139/111 75/145/111
f 85/118/112 86/121/112 89/140/112 90/139/112
f 86/121/113 87/123/113 88/143/113 89/140/113
f 77/132/114 103/137/114 93/133/114
f 103/146/115 75/145/115 90/139/115
f 93/142/116 103/146/116 90/139/116
f 81/114/117 77/147/117 79/148/117
f 81/114/118 75/113/118 113/149/118
f 104/150/119 77/147/119 113/149/119
f 104/138/120 103/137/120 77/132/120
f 100/122/121 110/111/121 105/93/121 87/123/121
f 97/127/122 109/105/122 110/111/122 100/122/122
f 94/131/101 108/102/123 109/105/123 97/127/102
f 91/135/124 107/99/124 112/101/124 94/131/124
f 88/143/109 106/96/125 107/98/125 91/144/110
f 87/123/126 105/93/126 106/96/126 88/143/126
f 111/108/127 74/107/127 84/151/127
f 108/102/128 111/100/128 80/103/128
f 111/100/129 107/99/129 78/152/129
f 94/131/130 112/101/130 108/102/130
f 112/101/131 111/100/131 108/102/131
f 113/149/132 75/113/132 104/150/132
f 113/149/133 77/147/133 81/114/133
f 80/153/134 111/108/134 84/151/134 82/154/134
f 115/32/135 19/31/135 118/155/135
f 64/78/136 117/156/136 71/79/136
f 115/32/137 116/157/137 52/30/137 13/29/137
f 116/158/138 114/77/138 54/76/138 52/75/138
f 114/77/139 117/156/139 64/78/139
f 26/35/140 118/155/140 19/31/140
f 114/159/141 116/157/141 115/32/141
f 115/32/142 118/155/142 117/160/142 114/159/142
f 71/161/143 117/160/143 118/155/143 26/35/143
f 26/35/144 60/41/144 71/161/144
